<svg width="17" height="17" viewBox="0 0 17 17" fill="none" xmlns="http://www.w3.org/2000/svg">
<g clip-path="url(#clip0_3080_18228)">
<path d="M15.9867 10.0882L8.71949 15.0108L8.67897 9.9953L8.62494 2.11914L15.8178 9.90242L15.9867 10.0882Z" fill="white"/>
<path d="M0.932251 10.1934L8.38856 15.0108L8.21971 2.11914L0.932251 10.1934Z" fill="white"/>
<path d="M8.32778 10.0077L0.986282 10.1377L0.932251 10.1934L8.38856 15.0108L8.32778 10.0077Z" fill="white"/>
<path d="M8.67896 9.99535L15.8178 9.90247L15.9867 10.0882L8.71948 15.0108L8.67896 9.99535Z" fill="black"/>
<path fill-rule="evenodd" clip-rule="evenodd" d="M7.33453 4.93171C6.99053 4.25677 6.97671 3.64493 6.99739 3.33521L7.13222 3.34277C7.11238 3.63985 7.12557 4.22922 7.45693 4.87934L7.45699 4.87944C7.72186 5.40154 8.08617 5.74172 8.31853 5.93041L8.22897 6.02311C7.98857 5.8279 7.60996 5.4746 7.33453 4.93171ZM8.69491 6.20141C9.0374 6.46 9.339 6.65655 9.57268 6.79121L9.5732 6.79151C10.2832 7.20907 10.9061 7.43017 11.2287 7.54107L11.2293 7.5413C11.3645 7.58929 11.5133 7.63445 11.7338 7.7014C11.8518 7.73721 11.9903 7.77925 12.1582 7.83129C12.5385 7.94452 12.7368 7.99878 12.8591 8.03226L12.8722 8.03585C12.9939 8.06916 13.0413 8.08246 13.1295 8.11802C13.2588 8.16795 14.1256 8.5039 14.4815 9.2395C14.5715 9.42478 14.6175 9.61189 14.6326 9.79403L15.8169 9.77862L15.8188 9.90245L14.6382 9.91781C14.6406 10.1813 14.5828 10.4307 14.5059 10.6447C14.3646 11.0383 14.1562 11.3194 14.1241 11.3619L14.0131 11.2914C14.0418 11.2533 14.2421 10.9834 14.3776 10.606C14.4514 10.4005 14.5053 10.1654 14.5031 9.91957L8.67995 9.99533L8.67803 9.8715L10.9127 9.84243L8.62102 8.00479L8.70995 7.91158L11.1146 9.8398L14.4972 9.79579C14.4825 9.62862 14.4398 9.45806 14.3581 9.28987L14.3581 9.28979C14.0255 8.6022 13.2055 8.28174 13.0766 8.23197L13.0761 8.23178L13.0756 8.23158C12.9953 8.19918 12.9548 8.1877 12.8336 8.15451L12.8206 8.15096C12.6976 8.1173 12.4982 8.06273 12.1161 7.94896L12.1154 7.94873C11.9508 7.89774 11.8137 7.85611 11.696 7.82036C11.4726 7.75256 11.3191 7.70596 11.1809 7.65691C10.8551 7.54488 10.2221 7.32022 9.50054 6.89591C9.26148 6.75813 8.95532 6.55845 8.60904 6.297L8.69491 6.20141ZM6.57265 6.65764C6.97612 6.81932 7.54352 7.14337 8.33505 7.69848L8.25298 7.79684C7.4641 7.24359 6.90697 6.92676 6.51855 6.77111C6.32429 6.69327 6.17595 6.65727 6.06424 6.65048C5.95371 6.64376 5.88361 6.66574 5.83796 6.69951C5.77542 6.74752 5.74113 6.83492 5.74292 6.97348C5.7447 7.11092 5.782 7.28497 5.84474 7.48751C5.94405 7.80811 6.10309 8.1882 6.27087 8.58916C6.3151 8.69488 6.35995 8.80205 6.40447 8.90996C6.54277 9.24524 6.67771 9.58726 6.77884 9.9113L8.32648 9.88389L8.32909 10.0077L6.81586 10.0345C6.85325 10.1642 6.88442 10.2904 6.90731 10.4114C6.99279 10.8634 6.96806 11.2695 6.68505 11.5084L6.68474 11.5086C6.5215 11.6447 6.27755 11.723 5.93666 11.7814C5.5945 11.8401 5.14186 11.8806 4.55213 11.9331L4.55182 11.9332C4.1856 11.9642 3.87953 11.9768 3.6811 11.9768V11.8529C3.87437 11.8529 4.1761 11.8407 4.53924 11.8099C5.13135 11.7571 5.57693 11.7171 5.91182 11.6597C6.24792 11.6021 6.45983 11.5287 6.59377 11.4171C6.8205 11.2256 6.85904 10.881 6.77422 10.4326C6.75033 10.3063 6.71706 10.1738 6.67678 10.037L0.987594 10.1377L0.984985 10.0139L6.63903 9.91378C6.54103 9.60539 6.41211 9.27858 6.27812 8.95377C6.23434 8.84765 6.19 8.74169 6.14607 8.63672C5.97797 8.23504 5.81594 7.84784 5.7148 7.52135C5.65101 7.31542 5.60985 7.12888 5.60785 6.97496C5.60588 6.82242 5.64237 6.68774 5.75183 6.60411L5.75253 6.60358L5.75253 6.60359C5.83184 6.54463 5.93895 6.51875 6.07318 6.52691C6.20651 6.53502 6.37096 6.57681 6.57265 6.65764Z" fill="black"/>
</g>
<defs>
<clipPath id="clip0_3080_18228">
<rect width="16" height="14" fill="white" transform="translate(0.5 1.5)"/>
</clipPath>
</defs>
</svg>
