<svg width="341" height="315" viewBox="0 0 341 315" fill="none" xmlns="http://www.w3.org/2000/svg">
<path d="M170.219 0C76.2089 0 0 60.0889 0 134.211C0 182.132 31.8604 224.181 79.7868 247.925C77.1795 256.917 63.0317 305.773 62.4686 309.612C62.4686 309.612 62.1298 312.495 63.9973 313.595C65.8648 314.695 68.0613 313.841 68.0613 313.841C73.4167 313.093 130.163 273.232 139.985 266.311C149.797 267.7 159.901 268.422 170.219 268.422C264.229 268.422 340.438 208.335 340.438 134.211C340.438 60.0889 264.229 0 170.219 0Z" fill="black"/>
<path d="M76.1074 181.062C70.6915 181.062 66.2871 176.856 66.2871 171.684V113.343H50.9641C45.6497 113.343 41.3271 109.028 41.3271 103.727C41.3271 98.4257 45.6514 94.1113 50.9641 94.1113H101.251C106.565 94.1113 110.888 98.4257 110.888 103.727C110.888 109.028 106.563 113.343 101.251 113.343H85.9277V171.684C85.9277 176.856 81.5233 181.062 76.1074 181.062ZM162.218 180.934C158.123 180.934 154.991 179.271 154.046 176.597L149.184 163.867L119.238 163.865L114.372 176.604C113.431 179.273 110.3 180.934 106.205 180.934C104.051 180.937 101.922 180.474 99.9626 179.579C97.2555 178.33 94.6531 174.897 97.6352 165.634L121.125 103.806C122.78 99.1033 127.806 94.2586 134.203 94.113C140.617 94.257 145.643 99.1033 147.301 103.815L170.782 165.616C173.77 174.9 171.168 178.335 168.461 179.581C166.501 180.474 164.372 180.936 162.218 180.934ZM144.02 146.472L134.211 118.606L124.402 146.472H144.02ZM186.586 179.63C181.396 179.63 177.175 175.59 177.175 170.628V103.932C177.175 98.5157 181.673 94.1113 187.2 94.1113C192.727 94.1113 197.225 98.5157 197.225 103.932V161.626H218.093C223.283 161.626 227.504 165.665 227.504 170.628C227.504 175.59 223.283 179.63 218.093 179.63H186.586ZM241.144 180.934C235.728 180.934 231.324 176.53 231.324 171.114V103.932C231.324 98.5157 235.728 94.1113 241.144 94.1113C246.56 94.1113 250.965 98.5157 250.965 103.932V125.039L278.363 97.6401C279.773 96.2309 281.709 95.4551 283.81 95.4551C286.262 95.4551 288.724 96.5124 290.568 98.3553C292.289 100.074 293.315 102.285 293.455 104.581C293.598 106.897 292.827 109.02 291.288 110.56L268.91 132.936L293.082 164.96C293.863 165.987 294.431 167.159 294.755 168.408C295.079 169.657 295.151 170.958 294.968 172.235C294.793 173.513 294.366 174.744 293.712 175.855C293.058 176.967 292.19 177.938 291.158 178.712C289.459 180.002 287.384 180.699 285.251 180.694C283.729 180.701 282.227 180.351 280.865 179.674C279.502 178.996 278.318 178.008 277.406 176.79L254.376 146.275L250.968 149.683V171.109C250.965 173.714 249.929 176.211 248.087 178.053C246.246 179.895 243.749 180.931 241.144 180.934Z" fill="#FFE812"/>
</svg>
